<?xml version="1.0" encoding="UTF-8"?>
<svg version="1.1" xmlns="http://www.w3.org/2000/svg" width="50" height="50">
<path d="M0 0 C16.5 0 33 0 50 0 C50 16.5 50 33 50 50 C33.5 50 17 50 0 50 C0 33.5 0 17 0 0 Z " fill="#FFFBF8" transform="translate(0,0)"/>
<path d="M0 0 C0.33 0.66 0.66 1.32 1 2 C1.83402344 1.83757813 2.66804687 1.67515625 3.52734375 1.5078125 C7.39266052 1.07390523 10.21821212 1.02583867 14 2 C17.53242112 5.67597379 19.79965931 9.67227453 22.08935547 14.19970703 C23.3251027 16.64270974 24.69913905 19.00146075 26.0625 21.375 C26.71350086 22.58055714 27.36174929 23.78764437 28 25 C28.66 25 29.32 25 30 25 C29.33289824 21.11013904 27.47108404 18.21911597 25.4375 14.875 C22 9.21730382 22 9.21730382 22 7 C27.28 7 32.56 7 38 7 C38 14.92 38 22.84 38 31 C21.5 31 5 31 -12 31 C-12 23.08 -12 15.16 -12 7 C-6.72 7 -1.44 7 4 7 C2.48716325 10.78209188 1.0539079 13.72418731 -1.0625 17.125 C-2.72679402 19.80251948 -3.99990801 21.99972402 -5 25 C-4.01 25 -3.02 25 -2 25 C1.96 18.07 5.92 11.14 10 4 C4.06 3.67 -1.88 3.34 -8 3 C-8 2.67 -8 2.34 -8 2 C-5.36 1.34 -2.72 0.68 0 0 Z " fill="#FFFBF8" transform="translate(12,19)"/>
<path d="M0 0 C9.24 0 18.48 0 28 0 C28 0.33 28 0.66 28 1 C25.69 1.66 23.38 2.32 21 3 C20.83318891 5.91652174 20.83318891 5.91652174 21 9 C22.95216435 10.95216435 24.53199953 11.84826645 27 13 C26.01 13 25.02 13 24 13 C24 15.64 24 18.28 24 21 C19.33333333 21 14.66666667 21 10 21 C14.29 21.33 18.58 21.66 23 22 C19.16347826 30.0327174 14.74826958 37.48288836 10 45 C9.01 44.67 8.02 44.34 7 44 C7.905368 39.79909249 9.90384869 36.41940924 12.0625 32.75 C13.361875 30.5225 14.66125 28.295 16 26 C10.72 26 5.44 26 0 26 C0 17.42 0 8.84 0 0 Z " fill="#FFFAF6" transform="translate(0,0)"/>
<path d="M0 0 C7.59 0 15.18 0 23 0 C23 1.32 23 2.64 23 4 C17.72 4 12.44 4 7 4 C7.66128906 5.03640625 8.32257812 6.0728125 9.00390625 7.140625 C9.85742609 8.51000847 10.71025487 9.87982284 11.5625 11.25 C12.00013672 11.93191406 12.43777344 12.61382812 12.88867188 13.31640625 C13.29794922 13.98027344 13.70722656 14.64414062 14.12890625 15.328125 C14.51119385 15.9355957 14.89348145 16.54306641 15.28735352 17.16894531 C16.18677067 19.47988352 15.80168206 20.69932794 15 23 C11.60345411 21.86781804 11.44101311 21.528061 9.84375 18.54296875 C9.46089844 17.84236328 9.07804687 17.14175781 8.68359375 16.41992188 C8.29300781 15.68322266 7.90242188 14.94652344 7.5 14.1875 C6.72139156 12.74206354 5.94021073 11.29800929 5.15625 9.85546875 C4.78886719 9.17919434 4.42148437 8.50291992 4.04296875 7.80615234 C2.85101424 5.74199517 1.43505307 3.8996055 0 2 C0 1.34 0 0.68 0 0 Z " fill="#FF7410" transform="translate(27,22)"/>
<path d="M0 0 C7.59 0 15.18 0 23 0 C19.9972102 6.00557959 17.21125681 11.51087898 13.6875 17.125 C12.99011719 18.24132812 12.29273438 19.35765625 11.57421875 20.5078125 C11.05472656 21.33023438 10.53523437 22.15265625 10 23 C9.01 22.67 8.02 22.34 7 22 C7.905368 17.79909249 9.90384869 14.41940924 12.0625 10.75 C13.361875 8.5225 14.66125 6.295 16 4 C10.72 4 5.44 4 0 4 C0 2.68 0 1.36 0 0 Z " fill="#FF730E" transform="translate(0,22)"/>
<path d="M0 0 C0.66 0 1.32 0 2 0 C3.63514233 2.4527135 5.1481246 4.89219755 6.625 7.4375 C7.25535156 8.49807617 7.25535156 8.49807617 7.8984375 9.58007812 C11 14.84165737 11 14.84165737 11 16 C4.73 16 -1.54 16 -8 16 C-6.53006465 11.59019395 -5.32112284 8.48966952 -3 4.625 C-2.484375 3.75101563 -1.96875 2.87703125 -1.4375 1.9765625 C-0.963125 1.32429688 -0.48875 0.67203125 0 0 Z " fill="#FFFBF8" transform="translate(24,34)"/>
<path d="M0 0 C0.66 0 1.32 0 2 0 C3.23681641 1.60473633 3.23681641 1.60473633 4.6015625 3.83203125 C5.09140625 4.63060547 5.58125 5.42917969 6.0859375 6.25195312 C6.59382813 7.09693359 7.10171875 7.94191406 7.625 8.8125 C8.140625 9.64587891 8.65625 10.47925781 9.1875 11.33789062 C13 17.61641245 13 17.61641245 13 21 C12.01 21.33 11.02 21.66 10 22 C8.66121428 19.8782637 7.32884524 17.75294812 6 15.625 C5.6184375 15.02171875 5.236875 14.4184375 4.84375 13.796875 C2 9.2265625 2 9.2265625 2 7 C1.34 7 0.68 7 0 7 C-0.26554687 7.71542969 -0.53109375 8.43085937 -0.8046875 9.16796875 C-2.02914099 12.06904319 -3.47983063 14.63015864 -5.125 17.3125 C-5.66382813 18.19550781 -6.20265625 19.07851563 -6.7578125 19.98828125 C-7.16773438 20.65214844 -7.57765625 21.31601562 -8 22 C-8.99 21.67 -9.98 21.34 -11 21 C-9.52840671 15.86541905 -7.24672098 11.65314066 -4.5 7.125 C-3.89478516 6.09246094 -3.89478516 6.09246094 -3.27734375 5.0390625 C-2.24494852 3.32181102 -1.12888572 1.65541825 0 0 Z " fill="#FF7512" transform="translate(24,27)"/>
<path d="M0 0 C2.31 0 4.62 0 7 0 C7.33 0.66 7.66 1.32 8 2 C7.01 2.495 7.01 2.495 6 3 C6.66 3.33 7.32 3.66 8 4 C8.33 2.68 8.66 1.36 9 0 C11.97 0 14.94 0 18 0 C18 2.64 18 5.28 18 8 C16.52093108 8.02689216 15.04172517 8.04634621 13.5625 8.0625 C12.32693359 8.07990234 12.32693359 8.07990234 11.06640625 8.09765625 C9 8 9 8 8 7 C6.48071962 6.92820036 4.95832518 6.91607993 3.4375 6.9375 C2.19806641 6.95103516 2.19806641 6.95103516 0.93359375 6.96484375 C-0.02353516 6.98224609 -0.02353516 6.98224609 -1 7 C-1 6.34 -1 5.68 -1 5 C-0.01 5 0.98 5 2 5 C1.01 4.67 0.02 4.34 -1 4 C-0.67 2.68 -0.34 1.36 0 0 Z " fill="#FF8E3D" transform="translate(4,13)"/>
<path d="M0 0 C3 0.25 3 0.25 5 2.25 C5.25 5.25 5.25 5.25 5 8.25 C3 10.25 3 10.25 0 10.5 C-3 10.25 -3 10.25 -5 8.25 C-5.25 5.25 -5.25 5.25 -5 2.25 C-3 0.25 -3 0.25 0 0 Z " fill="#FF6F08" transform="translate(25,0.75)"/>
<path d="M0 0 C4.75 0.75 4.75 0.75 7 3 C7.33 2.01 7.66 1.02 8 0 C8.99 0 9.98 0 11 0 C11 2.64 11 5.28 11 8 C6.25 7.25 6.25 7.25 4 5 C3.67 5.99 3.34 6.98 3 8 C2.01 8 1.02 8 0 8 C0 5.36 0 2.72 0 0 Z " fill="#FF7F24" transform="translate(24,13)"/>
<path d="M0 0 C2.25 0.0625 2.25 0.0625 5 1 C6.67849824 3.2308475 7.75999263 5.47405906 9 8 C7.68 8 6.36 8 5 8 C5 7.34 5 6.68 5 6 C3.02 6 1.04 6 -1 6 C-1 6.66 -1 7.32 -1 8 C-1.99 8 -2.98 8 -4 8 C-2.87548273 5.0280615 -1.77706209 2.66559313 0 0 Z " fill="#FF862E" transform="translate(40,13)"/>
<path d="M0 0 C2.64 0 5.28 0 8 0 C8 1.98 8 3.96 8 6 C5.36 6 2.72 6 0 6 C0 4.02 0 2.04 0 0 Z " fill="#FF7816" transform="translate(14,14)"/>
</svg>
